<svg width="284" height="120" viewBox="0 0 284 120" fill="none" xmlns="http://www.w3.org/2000/svg">
<path d="M59.8659 0.281952C43.976 0.281952 29.0356 6.47011 17.7991 17.7067C6.56252 28.9432 0.374359 43.8818 0.374359 59.7735C0.374359 75.6652 6.56252 90.6038 17.7991 101.84C29.0356 113.077 43.9742 119.265 59.8659 119.265C75.7576 119.265 90.6962 113.077 101.933 101.84C113.169 90.6038 119.357 75.6634 119.357 59.7735C119.357 43.8836 113.169 28.9432 101.933 17.7067C90.6962 6.47011 75.7576 0.281952 59.8659 0.281952ZM109.286 45.9548L92.4647 62.5804L63.0207 33.0439L82.5111 13.7238C87.4925 16.1791 92.0933 19.4607 96.136 23.5034C102.475 29.842 106.948 37.5486 109.286 45.9548ZM74.1358 10.4838L47.8937 36.4977V9.8804C51.7696 8.95806 55.7815 8.47968 59.8677 8.47968C64.7657 8.47968 69.5568 9.16464 74.1376 10.4838H74.1358ZM23.5958 23.5034C28.2999 18.7993 33.7578 15.1263 39.6941 12.5858V60.8589H8.58477C8.57753 60.4965 8.57209 60.1359 8.57209 59.7717C8.57209 46.0707 13.9068 33.1907 23.5958 23.5016V23.5034ZM9.40926 69.0566H24.4964V96.9206C24.1938 96.6325 23.893 96.3389 23.5976 96.0417C16.1356 88.5797 11.2594 79.2223 9.41107 69.0566H9.40926ZM32.6942 103.297V69.0566H47.8937V48.0404L57.2004 38.8153L66.3839 48.0278V110.658C64.2384 110.928 62.0639 111.067 59.8677 111.067C50.108 111.067 40.765 108.358 32.6942 103.297ZM96.136 96.0436C90.0239 102.156 82.6398 106.534 74.5798 108.935V56.2527L92.4213 74.1503L111.006 55.7834C111.107 57.1043 111.16 58.4362 111.16 59.7753C111.16 73.4762 105.825 86.3563 96.136 96.0454V96.0436Z" fill="#2B2623"/>
<path d="M149.865 54.3718H155.769V32.58H163.934V27.5153H141.7V32.58H149.865V54.3718Z" fill="#2B2623"/>
<path d="M174.795 47.582L178.222 43.822L186.385 54.3718H193.275L182.085 39.4857L192.655 27.5153H186.094L174.795 40.062V27.5153H168.928V54.3718H174.795V47.582Z" fill="#2B2623"/>
<path d="M221.557 27.5153L212.155 44.2061L202.605 27.5153H197.722V54.3718H203.261V38.6033L210.732 51.5341H213.394L220.901 38.259L220.938 54.3718H226.479L226.405 27.5153H221.557Z" fill="#2B2623"/>
<path d="M152.964 70.3142C154.227 69.5984 155.673 69.2396 157.302 69.2396C159.877 69.2396 162.077 70.2508 163.9 72.2712L167.69 68.5873C166.451 67.0779 164.92 65.9272 163.099 65.1335C161.276 64.3417 159.248 63.9448 157.012 63.9448C154.339 63.9448 151.933 64.5392 149.795 65.7279C147.656 66.9166 145.986 68.5674 144.782 70.6766C143.579 72.7858 142.978 75.1723 142.978 77.8324C142.978 80.4925 143.579 82.8772 144.782 84.9882C145.986 87.0974 147.644 88.7482 149.758 89.9369C151.873 91.1256 154.254 91.7218 156.901 91.7218C158.748 91.7218 160.583 91.4282 162.405 90.8393C164.228 90.2504 165.831 89.4078 167.216 88.3079V77.412H161.821V85.2763C160.46 86.0428 158.929 86.427 157.229 86.427C155.626 86.427 154.198 86.0627 152.948 85.3343C151.695 84.6059 150.719 83.5893 150.014 82.2846C149.309 80.9799 148.957 79.4977 148.957 77.8342C148.957 76.1708 149.309 74.6504 150.014 73.3458C150.719 72.0411 151.703 71.0318 152.966 70.3142H152.964Z" fill="#2B2623"/>
<path d="M195.261 79.3111C196.172 77.8669 196.627 76.1454 196.627 74.1503C196.627 72.1553 196.178 70.4284 195.279 68.9715C194.38 67.5128 193.097 66.3875 191.434 65.5956C189.768 64.8038 187.808 64.4069 185.548 64.4069H174.504V91.2634H180.407V83.7814H185.838L190.758 91.2634H197.1L191.378 82.6307C193.054 81.8642 194.348 80.7571 195.259 79.3129L195.261 79.3111ZM189.265 77.6041C188.341 78.4232 186.992 78.8327 185.218 78.8327H180.407V69.4716H185.218C186.992 69.4716 188.341 69.8739 189.265 70.6803C190.187 71.4866 190.649 72.6427 190.649 74.1522C190.649 75.6616 190.187 76.7869 189.265 77.6059V77.6041Z" fill="#2B2623"/>
<path d="M220.173 79.215C220.173 81.6957 219.687 83.5186 218.714 84.682C217.743 85.8453 216.333 86.427 214.487 86.427C210.696 86.427 208.8 84.0224 208.8 79.215V64.4051H202.897V79.4451C202.897 83.3845 203.912 86.4143 205.939 88.538C207.969 90.6617 210.805 91.7218 214.45 91.7218C218.096 91.7218 220.932 90.6599 222.962 88.538C224.989 86.4161 226.004 83.3845 226.004 79.4451V64.4051H220.173V79.215Z" fill="#2B2623"/>
<path d="M250.588 65.5938C248.923 64.8019 246.962 64.4051 244.703 64.4051H233.658V91.2615H239.562V83.8575H244.701C246.96 83.8575 248.923 83.4679 250.586 82.6869C252.25 81.9077 253.533 80.7824 254.432 79.311C255.33 77.8397 255.78 76.12 255.78 74.1503C255.78 72.1806 255.33 70.4284 254.432 68.9715C253.533 67.5128 252.25 66.3875 250.586 65.5956L250.588 65.5938ZM248.419 77.5842C247.495 78.3905 246.147 78.7928 244.373 78.7928H239.562V69.4698H244.373C246.147 69.4698 247.495 69.8721 248.419 70.6784C249.342 71.4848 249.804 72.6409 249.804 74.1503C249.804 75.6598 249.342 76.7778 248.419 77.5842Z" fill="#2B2623"/>
<path d="M281.842 68.9715C280.944 67.5128 279.661 66.3875 277.997 65.5956C276.332 64.8038 274.371 64.4069 272.112 64.4069H261.067V91.2634H266.971V83.8593H272.11C274.37 83.8593 276.332 83.4697 277.996 82.6887C279.659 81.9096 280.942 80.7843 281.841 79.3129C282.739 77.8415 283.189 76.1219 283.189 74.1522C283.189 72.1824 282.739 70.4302 281.841 68.9733L281.842 68.9715ZM275.828 77.5842C274.904 78.3905 273.556 78.7928 271.782 78.7928H266.971V69.4698H271.782C273.556 69.4698 274.904 69.8721 275.828 70.6784C276.751 71.4848 277.213 72.6409 277.213 74.1503C277.213 75.6598 276.751 76.7778 275.828 77.5842Z" fill="#2B2623"/>
</svg>
