<svg width="500" height="500" viewBox="0 0 500 500" fill="none" xmlns="http://www.w3.org/2000/svg">
<path d="M252.856 27.0949C253.273 27.0949 253.686 27.1082 254.101 27.1105C349.362 27.6238 430.815 86.8382 463.276 169.957C466.704 178.735 469.582 187.781 471.876 197.051H499.998C497.977 187.823 495.457 178.777 492.434 169.957C458.727 71.6113 364.69 0.546793 254.101 0.0155771C253.686 0.0132674 253.273 0 252.856 0C113.838 0 0.674543 111.487 0 248.777H27.4046C28.0797 126.428 128.949 27.0949 252.856 27.0949Z" fill="#7E09DF"/>
<path d="M448.717 302.967H420.134C417.081 312.371 413.24 321.428 408.684 330.061C379.541 385.289 321.241 423.18 254.102 423.645C253.687 423.648 253.274 423.66 252.857 423.66C161.893 423.66 86.8642 354.939 78.0817 267.251C77.5134 261.578 77.2174 255.827 77.2174 250.009C77.2174 249.597 77.2302 249.188 77.2331 248.777C77.9071 153.591 156.425 76.3572 252.857 76.3572C253.274 76.3572 253.687 76.3699 254.103 76.3728C321.241 76.8377 379.541 114.728 408.684 169.956H384.343C357.312 126.715 309.086 97.7415 254.103 97.3091V124.403C292.917 124.775 327.624 142.432 350.702 169.956C357.592 178.173 363.439 187.273 368.056 197.05H448.717C446.137 187.732 442.894 178.684 439.039 169.956C407.86 99.3462 336.763 49.7722 254.102 49.2774C253.687 49.275 253.274 49.2618 252.857 49.2618C141.314 49.2618 50.5019 138.65 49.828 248.776C49.8256 249.187 49.8122 249.596 49.8122 250.008C49.8122 255.816 50.0779 261.564 50.5691 267.25C59.4439 369.899 146.772 450.753 252.857 450.753C253.274 450.753 253.687 450.74 254.102 450.738C336.763 450.243 407.86 400.669 439.039 330.06H463.277C430.816 413.179 349.363 472.393 254.103 472.906V500C364.692 499.469 458.728 428.404 492.436 330.059C495.459 321.238 497.979 312.192 500 302.965H448.717V302.967Z" fill="#B828CD"/>
<path d="M350.7 330.061C327.623 357.584 292.916 375.243 254.102 375.613C253.686 375.617 253.273 375.629 252.856 375.629C188.711 375.629 135.526 328.388 127 267.251H99.383C108.074 343.37 173.58 402.723 252.856 402.723C253.273 402.723 253.686 402.711 254.102 402.708C309.084 402.275 357.31 373.301 384.341 330.06C389.665 321.545 394.169 312.479 397.737 302.966H368.054C363.438 312.744 357.59 321.843 350.7 330.061Z" fill="#7E09DF"/>
</svg>
